<svg viewBox="0 0 24 24" xmlns="http://www.w3.org/2000/svg"><path d="M3.703 20.094h3.61V9.25h-3.61v10.844zM7.547 5.906c-.01-.541-.198-.99-.563-1.343-.364-.355-.849-.532-1.453-.532-.604 0-1.096.177-1.476.532-.38.354-.57.802-.57 1.343 0 .532.184.977.554 1.336.37.36.852.54 1.445.54H5.5c.615 0 1.11-.18 1.484-.54.375-.36.563-.804.563-1.336zm5.36 4.873v.05h-.032l.031-.05zm0 0V9.25h-3.61c.031.688.031 4.302 0 10.844h3.61V14.03c0-.396.036-.687.109-.875.156-.364.39-.674.703-.93.312-.255.698-.382 1.156-.382 1.208 0 1.813.817 1.813 2.453v5.797h3.609v-6.219c0-1.604-.38-2.818-1.14-3.64C18.395 9.41 17.39 9 16.14 9c-1.398 0-2.476.593-3.235 1.779zM24 4.5v15c0 1.24-.44 2.3-1.32 3.18-.88.88-1.94 1.32-3.18 1.32h-15c-1.24 0-2.3-.44-3.18-1.32C.44 21.8 0 20.74 0 19.5v-15c0-1.24.44-2.3 1.32-3.18C2.2.44 3.26 0 4.5 0h15c1.24 0 2.3.44 3.18 1.32C23.56 2.2 24 3.26 24 4.5z" fill="#0077B5" fill-rule="evenodd"/></svg>