<svg viewBox="0 0 24 23" xmlns="http://www.w3.org/2000/svg"><path d="M5.969 1.58C7.813.528 9.823 0 12 0c2.177 0 4.185.527 6.023 1.58a11.843 11.843 0 0 1 4.368 4.291C23.464 7.677 24 9.649 24 11.788c0 2.568-.763 4.878-2.29 6.93-1.525 2.052-3.496 3.472-5.913 4.26-.281.05-.49.015-.625-.108a.596.596 0 0 1-.203-.46l.008-1.175c.005-.752.007-1.44.007-2.064 0-.993-.27-1.72-.812-2.18a10.876 10.876 0 0 0 1.601-.276 6.447 6.447 0 0 0 1.47-.599 4.352 4.352 0 0 0 1.265-1.02c.338-.404.614-.942.828-1.612.213-.67.32-1.44.32-2.31 0-1.218-.411-2.272-1.234-3.162.385-.931.344-1.975-.125-3.131-.292-.092-.714-.036-1.266.169a8.482 8.482 0 0 0-1.437.675L15 6.094c-.969-.267-1.969-.4-3-.4s-2.031.133-3 .4a13.9 13.9 0 0 0-.664-.415c-.276-.164-.711-.36-1.305-.59-.594-.231-1.036-.3-1.328-.208-.469 1.156-.51 2.2-.125 3.131-.823.89-1.234 1.944-1.234 3.162 0 .87.107 1.637.32 2.302.214.666.487 1.203.82 1.612.334.41.753.752 1.258 1.028.505.277.995.476 1.469.599.474.123 1.008.215 1.601.276-.406.369-.661.896-.765 1.581a3.05 3.05 0 0 1-.703.23c-.25.052-.547.077-.89.077-.345 0-.686-.11-1.024-.33-.339-.22-.628-.54-.867-.96a2.495 2.495 0 0 0-.758-.797c-.308-.205-.565-.328-.774-.369l-.312-.046c-.219 0-.37.023-.453.07-.084.045-.11.104-.079.176a.844.844 0 0 0 .141.215c.063.071.13.133.203.184l.11.077c.229.102.455.297.68.583.223.287.387.547.492.783l.156.353c.135.389.364.703.687.944.323.24.672.394 1.047.46.375.067.737.103 1.086.108.349.005.638-.013.867-.054l.36-.061c0 .388.002.841.007 1.358.006.517.008.796.008.837a.596.596 0 0 1-.203.46c-.135.123-.344.159-.625.107-2.417-.787-4.388-2.207-5.914-4.259C.763 16.666 0 14.356 0 11.788c0-2.139.536-4.11 1.61-5.917a11.86 11.86 0 0 1 4.359-4.29zM4.547 16.93c-.042.082-.11.092-.203.03-.104-.05-.14-.112-.11-.184.032-.05.1-.061.204-.03.104.05.14.112.109.184zm.484.522c-.062.071-.146.056-.25-.046-.094-.113-.104-.195-.031-.246.063-.061.146-.046.25.046.094.113.104.195.031.246zm.469.69c-.083.062-.172.026-.266-.107-.093-.133-.093-.225 0-.276.094-.072.183-.041.266.092.094.123.094.22 0 .291zm.656.645c-.083.092-.187.077-.312-.046-.136-.112-.157-.21-.063-.292.084-.092.188-.076.313.047.125.112.146.21.062.291zm.89.384c-.04.123-.14.153-.296.092-.177-.041-.245-.118-.203-.23.042-.113.14-.149.297-.108.166.051.234.133.203.246zm.985.077c0 .112-.083.168-.25.168-.177.02-.265-.035-.265-.168 0-.113.083-.17.25-.17.177-.02.265.037.265.17zm.906-.154c.021.102-.052.174-.218.215-.167.041-.26 0-.281-.123-.021-.123.052-.2.218-.23.167-.02.26.026.281.138z"  fill-rule="evenodd"/></svg>
