<svg viewBox="0 0 24 24" xmlns="http://www.w3.org/2000/svg"><defs><linearGradient x1="0%" y1="100%" x2="76.065%" y2="11.054%" id="a"><stop stop-color="#FFDC80" offset="0%"/><stop stop-color="#F77737" offset="35.333%"/><stop stop-color="#E1306C" offset="52.33%"/><stop stop-color="#833AB4" offset="73.302%"/><stop stop-color="#405DE6" offset="100%"/></linearGradient></defs><path d="M125.828 31.828A3.854 3.854 0 0 0 127 29a3.85 3.85 0 0 0-1.172-2.828A3.854 3.854 0 0 0 123 25a3.85 3.85 0 0 0-2.828 1.172A3.854 3.854 0 0 0 119 29a3.85 3.85 0 0 0 1.172 2.828A3.854 3.854 0 0 0 123 33a3.85 3.85 0 0 0 2.828-1.172zm1.531-7.187c1.198 1.198 1.797 2.65 1.797 4.359 0 1.708-.599 3.161-1.797 4.36-1.198 1.197-2.65 1.796-4.359 1.796-1.708 0-3.161-.599-4.36-1.797-1.197-1.198-1.796-2.65-1.796-4.359 0-1.708.599-3.161 1.797-4.36 1.198-1.197 2.65-1.796 4.359-1.796 1.708 0 3.161.599 4.36 1.797zm3.063-3.063c.281.281.422.62.422 1.016s-.14.734-.422 1.015c-.281.282-.62.422-1.016.422s-.734-.14-1.015-.422a1.384 1.384 0 0 1-.422-1.015c0-.396.14-.735.422-1.016.28-.281.62-.422 1.015-.422.396 0 .735.14 1.016.422zm-6.234-2.422H123c-.073 0-.471-.002-1.195-.008a84.764 84.764 0 0 0-1.649 0c-.375.006-.877.021-1.508.047-.63.026-1.166.078-1.609.157a6.265 6.265 0 0 0-1.117.289c-.521.208-.98.51-1.375.906a4.054 4.054 0 0 0-.906 1.375 6.287 6.287 0 0 0-.29 1.117c-.078.443-.13.98-.156 1.61-.026.63-.041 1.132-.047 1.507-.005.375-.005.925 0 1.649.006.724.008 1.122.008 1.195 0 .073-.002.471-.008 1.195a84.754 84.754 0 0 0 0 1.649c.006.375.021.877.047 1.508.026.63.078 1.166.157 1.609.078.443.174.815.289 1.117.208.521.51.98.906 1.375.396.396.854.698 1.375.906.302.115.674.211 1.117.29.443.078.98.13 1.61.156.63.026 1.132.041 1.507.047.375.005.925.005 1.649 0a241.54 241.54 0 0 1 1.195-.008c.073 0 .471.002 1.195.008.724.005 1.274.005 1.649 0 .375-.006.877-.021 1.508-.047.63-.026 1.166-.078 1.609-.157a6.265 6.265 0 0 0 1.117-.289c.521-.208.98-.51 1.375-.906.396-.396.698-.854.906-1.375.115-.302.211-.674.29-1.117.078-.443.13-.98.156-1.61.026-.63.041-1.132.047-1.507.005-.375.005-.925 0-1.649a241.54 241.54 0 0 1-.008-1.195c0-.073.002-.471.008-1.195.005-.724.005-1.274 0-1.649a62.124 62.124 0 0 0-.047-1.508 12.382 12.382 0 0 0-.157-1.609 6.265 6.265 0 0 0-.289-1.117 4.036 4.036 0 0 0-.906-1.375 4.054 4.054 0 0 0-1.375-.906 6.265 6.265 0 0 0-1.117-.29c-.443-.078-.98-.13-1.61-.156a57.886 57.886 0 0 0-1.507-.047 63.845 63.845 0 0 0-1.656.008zm10.734 4.89c.052.918.078 2.569.078 4.954s-.026 4.036-.078 4.953c-.104 2.167-.75 3.844-1.938 5.031-1.187 1.188-2.864 1.834-5.03 1.938-.918.052-2.569.078-4.954.078s-4.036-.026-4.953-.078c-2.167-.104-3.844-.75-5.031-1.938-1.188-1.187-1.834-2.864-1.938-5.03-.052-.918-.078-2.569-.078-4.954s.026-4.036.078-4.953c.104-2.167.75-3.844 1.938-5.031 1.187-1.188 2.864-1.834 5.03-1.938.918-.052 2.569-.078 4.954-.078s4.036.026 4.953.078c2.167.104 3.844.75 5.031 1.938 1.188 1.187 1.834 2.864 1.938 5.03z" transform="translate(-111 -17)" fill="url(#a)" fill-rule="evenodd"/></svg>