<svg viewBox="0 0 24 24" xmlns="http://www.w3.org/2000/svg"><path d="M20 7.531a6.951 6.951 0 0 1-1.89.532c.708-.417 1.192-1.027 1.453-1.829a6.525 6.525 0 0 1-2.094.797C16.833 6.344 16.036 6 15.079 6c-.907 0-1.68.32-2.321.96a3.168 3.168 0 0 0-.961 2.321c0 .302.026.552.078.75a9.29 9.29 0 0 1-3.781-1.015 9.301 9.301 0 0 1-3-2.422A3.25 3.25 0 0 0 4.64 8.25c0 1.188.474 2.099 1.421 2.734-.49-.01-1.01-.145-1.562-.406v.031c0 .782.26 1.477.781 2.086.521.61 1.162.987 1.922 1.133a3.048 3.048 0 0 1-.797.125 4.36 4.36 0 0 1-.61-.062 3.336 3.336 0 0 0 1.165 1.625 3.12 3.12 0 0 0 1.898.656c-1.208.937-2.567 1.406-4.078 1.406-.27 0-.531-.015-.781-.047A9.205 9.205 0 0 0 9.031 19c1.167 0 2.26-.185 3.281-.555 1.021-.37 1.896-.864 2.626-1.484a9.855 9.855 0 0 0 1.882-2.14 9.433 9.433 0 0 0 1.555-5.165c0-.187-.005-.328-.016-.422A6.377 6.377 0 0 0 20 7.531zM24 4.5v15c0 1.24-.44 2.3-1.32 3.18-.88.88-1.94 1.32-3.18 1.32h-15c-1.24 0-2.3-.44-3.18-1.32C.44 21.8 0 20.74 0 19.5v-15c0-1.24.44-2.3 1.32-3.18C2.2.44 3.26 0 4.5 0h15c1.24 0 2.3.44 3.18 1.32C23.56 2.2 24 3.26 24 4.5z" fill-rule="evenodd"/></svg>
